# xmcd CD database file
#
# Track frame offsets:
#	150
#	35356
#	63631
#	97550
#	139743
#	157219
#	186282
#	227606
#	266687
#	287968
#	322417
#
# Disc length: 4785 seconds
#
# Revision: 0
# Processed by: cddbd v1.5.2PL0 Copyright (c) Steve Scherf et al.
# Submitted via: CDex 1.77
#
DISCID=a412af0b
DTITLE=Musica Jazz (Magazine) - ECM Autumn Highlights (sel. by Manfrede Eicher)
DYEAR=2017
DGENRE=Jazz
TTITLE0=Vijay Iyer Sextet - Poles
TTITLE1=David Virelles - Tierra
TTITLE2=Bill Frisell and Thomas Morgan - Subconscious-Lee
TTITLE3=Anouar Brahem - Bom Dia Rio
TTITLE4=Bjorn Meyer - Traces of a song
TTITLE5=Django Bates - Little Peterik
TTITLE6=Maciej Obara - Echoes
TTITLE7=Stefano Battaglia - Halap
TTITLE8=Gary Peacock - Blue in green
TTITLE9=Tim Berne's Snakeoil - Stingray Shuffle
TTITLE10=Roscoe Mitchell - EP7849
EXTD=YEAR: 2017
EXTT0=
EXTT1=
EXTT2=
EXTT3=
EXTT4=
EXTT5=
EXTT6=
EXTT7=
EXTT8=
EXTT9=
EXTT10=
PLAYORDER=
